<?xml version="1.0" encoding="UTF-8" standalone="no"?>
<svg
   xmlns:dc="http://purl.org/dc/elements/1.1/"
   xmlns:cc="http://creativecommons.org/ns#"
   xmlns:rdf="http://www.w3.org/1999/02/22-rdf-syntax-ns#"
   xmlns:svg="http://www.w3.org/2000/svg"
   xmlns="http://www.w3.org/2000/svg"
   viewBox="0 0 855.12799 348.04401"
   height="348.04401"
   width="855.12799"
   xml:space="preserve"
   id="svg2"
   version="1.1"><metadata
     id="metadata8"><rdf:RDF><cc:Work
         rdf:about=""><dc:format>image/svg+xml</dc:format><dc:type
           rdf:resource="http://purl.org/dc/dcmitype/StillImage" /></cc:Work></rdf:RDF></metadata><defs
     id="defs6"><clipPath
       id="clipPath18"
       clipPathUnits="userSpaceOnUse"><path
         id="path16"
         d="M 0,261.033 H 641.346 V 0 H 0 Z" /></clipPath><linearGradient
       id="linearGradient52"
       spreadMethod="pad"
       gradientTransform="matrix(-151.30804,-151.30804,-151.30804,151.30804,201.56494,207.20921)"
       gradientUnits="userSpaceOnUse"
       y2="0"
       x2="1"
       y1="0"
       x1="0"><stop
         id="stop48"
         offset="0"
         style="stop-opacity:1;stop-color:#00bffe" /><stop
         id="stop50"
         offset="1"
         style="stop-opacity:1;stop-color:#1254ad" /></linearGradient></defs><g
     transform="matrix(1.3333333,0,0,-1.3333333,0,348.044)"
     id="g10"><g
       id="g12"><g
         clip-path="url(#clipPath18)"
         id="g14"><g
           transform="translate(334.1601,152.1211)"
           id="g20"><path
             id="path22"
             style="fill:#1254ad;fill-opacity:1;fill-rule:nonzero;stroke:none"
             d="m 0,0 c -3.142,5.237 -11.779,10.211 -21.727,10.211 -12.829,0 -18.978,-5.367 -18.978,-12.172 0,-7.984 9.423,-10.211 20.417,-11.519 19.11,-2.356 36.91,-7.33 36.91,-29.187 0,-20.419 -18.063,-29.188 -38.481,-29.188 -18.717,0 -33.114,5.759 -39.919,22.512 l 14.397,7.46 c 4.056,-10.077 14.66,-14.527 25.783,-14.527 10.865,0 21.074,3.796 21.074,13.743 0,8.638 -9.031,12.173 -21.203,13.48 -18.717,2.225 -35.995,7.199 -35.995,27.748 0,18.848 18.585,26.569 35.471,26.701 14.267,0 29.057,-4.057 35.994,-18.193 z" /></g><g
           transform="translate(444.4819,174.1113)"
           id="g24"><path
             id="path26"
             style="fill:#00bffe;fill-opacity:1;fill-rule:nonzero;stroke:none"
             d="m 0,0 v -52.484 c 0,-27.094 -16.622,-40.969 -39.658,-40.969 -21.988,0 -40.705,13.35 -40.705,40.969 V 0 h 17.146 v -52.484 c 0,-16.493 9.423,-25.262 23.69,-25.262 14.266,0 22.381,9.555 22.381,25.262 V 0 Z" /></g><g
           transform="translate(517.8945,152.1211)"
           id="g28"><path
             id="path30"
             style="fill:#1254ad;fill-opacity:1;fill-rule:nonzero;stroke:none"
             d="m 0,0 c -3.142,5.237 -11.779,10.211 -21.727,10.211 -12.829,0 -18.978,-5.367 -18.978,-12.172 0,-7.984 9.423,-10.211 20.417,-11.519 19.11,-2.356 36.91,-7.33 36.91,-29.187 0,-20.419 -18.063,-29.188 -38.48,-29.188 -18.717,0 -33.115,5.759 -39.92,22.512 l 14.396,7.46 c 4.057,-10.077 14.661,-14.527 25.784,-14.527 10.865,0 21.074,3.796 21.074,13.743 0,8.638 -9.031,12.173 -21.203,13.48 -18.717,2.225 -35.995,7.199 -35.995,27.748 0,18.848 18.585,26.569 35.471,26.701 14.268,0 29.057,-4.057 35.994,-18.193 z" /></g><g
           transform="translate(604.3945,152.1211)"
           id="g32"><path
             id="path34"
             style="fill:#1254ad;fill-opacity:1;fill-rule:nonzero;stroke:none"
             d="m 0,0 c -3.143,5.237 -11.777,10.211 -21.726,10.211 -12.825,0 -18.979,-5.367 -18.979,-12.172 0,-7.984 9.425,-10.211 20.417,-11.519 19.109,-2.356 36.912,-7.33 36.912,-29.187 0,-20.419 -18.061,-29.188 -38.478,-29.188 -18.717,0 -33.117,5.759 -39.922,22.512 l 14.396,7.46 c 4.057,-10.077 14.658,-14.527 25.784,-14.527 10.863,0 21.074,3.796 21.074,13.743 0,8.638 -9.034,12.173 -21.204,13.48 -18.716,2.225 -35.994,7.199 -35.994,27.748 0,18.848 18.585,26.569 35.473,26.701 14.263,0 29.053,-4.057 35.992,-18.193 z" /></g></g></g><g
       id="g36"><g
         id="g38"><g
           id="g44"><g
             id="g46"><path
               id="path54"
               style="fill:url(#linearGradient52);stroke:none"
               d="M 20.525,123.881 C 23.752,69.674 67.877,25.538 122.081,22.252 v 0 c 19.952,-1.209 38.807,3.016 55.283,11.283 v 0 c -35.476,0.079 -63.501,10.086 -78.968,38.206 v 0 c -2.595,4.72 -0.92,10.653 3.863,13.131 v 0 l 13.74,7.119 c 4.265,2.211 9.564,0.902 12.175,-3.131 v 0 c 10.275,-15.865 29.8,-22.985 50.16,-22.985 v 0 c 22.749,0 44.135,7.947 44.135,28.798 v 0 c 0,18.083 -18.92,25.494 -44.414,28.24 v 0 c -39.201,4.644 -75.389,15.07 -75.389,58.111 v 0 c 0,32.244 25.949,48.923 54.725,54.123 v 0 c -9.113,2.485 -18.694,3.837 -28.595,3.837 v 0 c -62.102,0 -112.015,-52.19 -108.271,-115.103 m 117.781,56.049 c 0,-16.721 19.735,-21.387 42.763,-24.133 v 0 c 21.066,-2.596 41.316,-6.769 55.83,-16.757 v 0 c -1.374,17.646 -6.948,34.107 -15.757,48.374 v 0 c -7.955,9.645 -24.404,18.01 -43.087,18.01 v 0 c -26.868,0 -39.749,-11.228 -39.749,-25.494" /></g></g></g></g></g></svg>